{"accessors" : [{"bufferView" : 0, "byteOffset" : 0, "componentType" : 5123, "count" : 3552, "type" : "SCALAR", "max" : [2367], "min" : [0]}, {"bufferView" : 1, "byteOffset" : 0, "componentType" : 5126, "count" : 2368, "type" : "VEC3", "max" : [0.17662149667739868, 0.32071301341056824, 5.36725378036499], "min" : [-0.18892909586429596, 0.05201587826013565, 0.4230341911315918], "name" : "POSITION"}, {"bufferView" : 1, "byteOffset" : 12, "componentType" : 5126, "count" : 2368, "type" : "VEC2", "max" : [1, 1], "min" : [0, 0], "name" : "TEXCOORD_0"}, {"bufferView" : 1, "byteOffset" : 20, "componentType" : 5126, "count" : 2368, "type" : "VEC3", "max" : [0.9989344477653503, 0.9981986880302429, 0.532374382019043], "min" : [-0.9972088932991028, -0.9995842576026917, -0.9993678331375122], "name" : "NORMAL"}, {"bufferView" : 0, "byteOffset" : 7104, "componentType" : 5123, "count" : 1584, "type" : "SCALAR", "max" : [1103], "min" : [0]}, {"bufferView" : 2, "byteOffset" : 0, "componentType" : 5126, "count" : 1104, "type" : "VEC3", "max" : [0.5101410746574402, 0.7819277048110962, 3.732974052429199], "min" : [-0.4888905882835388, -1.586027979850769, 2.138741970062256], "name" : "POSITION"}, {"bufferView" : 2, "byteOffset" : 12, "componentType" : 5126, "count" : 1104, "type" : "VEC2", "max" : [0, 0.9166666269302368], "min" : [-1, 0], "name" : "TEXCOORD_0"}, {"bufferView" : 2, "byteOffset" : 20, "componentType" : 5126, "count" : 1104, "type" : "VEC3", "max" : [0.9990361332893372, 0.999643862247467, 0.9993526935577393], "min" : [-0.9990361332893372, -0.999643862247467, -0.999352753162384], "name" : "NORMAL"}, {"bufferView" : 0, "byteOffset" : 10272, "componentType" : 5123, "count" : 2688, "type" : "SCALAR", "max" : [1791], "min" : [0]}, {"bufferView" : 3, "byteOffset" : 0, "componentType" : 5126, "count" : 1792, "type" : "VEC3", "max" : [0.19061279296875, -1.4257420301437378, 3.2582309246063232], "min" : [-0.05281209945678711, -3.488553047180176, 3.0297229290008545], "name" : "POSITION"}, {"bufferView" : 3, "byteOffset" : 12, "componentType" : 5126, "count" : 1792, "type" : "VEC2", "max" : [1, 1], "min" : [0, 0], "name" : "TEXCOORD_0"}, {"bufferView" : 3, "byteOffset" : 20, "componentType" : 5126, "count" : 1792, "type" : "VEC3", "max" : [0.9988943934440613, 0.999643862247467, 0.9992787837982178], "min" : [-0.9977138638496399, -0.9996375441551208, -0.9976111054420471], "name" : "NORMAL"}, {"bufferView" : 0, "byteOffset" : 15648, "componentType" : 5123, "count" : 2688, "type" : "SCALAR", "max" : [1791], "min" : [0]}, {"bufferView" : 4, "byteOffset" : 0, "componentType" : 5126, "count" : 1792, "type" : "VEC3", "max" : [0.16864310204982758, -1.4228880405426025, 2.773332118988037], "min" : [-0.1110839992761612, -3.4798150062561035, 2.5465619564056396], "name" : "POSITION"}, {"bufferView" : 4, "byteOffset" : 12, "componentType" : 5126, "count" : 1792, "type" : "VEC2", "max" : [1, 1], "min" : [0, 0], "name" : "TEXCOORD_0"}, {"bufferView" : 4, "byteOffset" : 20, "componentType" : 5126, "count" : 1792, "type" : "VEC3", "max" : [0.9991592764854431, 0.999643862247467, 0.9994546175003052], "min" : [-0.9976089596748352, -0.9996610283851624, -0.9979917407035828], "name" : "NORMAL"}, {"bufferView" : 0, "byteOffset" : 21024, "componentType" : 5123, "count" : 1560, "type" : "SCALAR", "max" : [1087], "min" : [0]}, {"bufferView" : 5, "byteOffset" : 0, "componentType" : 5126, "count" : 1088, "type" : "VEC3", "max" : [0.6650310158729553, 0.7819277048110962, 3.7800989151000977], "min" : [-0.6437804102897644, -1.586027979850769, 2.0916171073913574], "name" : "POSITION"}, {"bufferView" : 5, "byteOffset" : 12, "componentType" : 5126, "count" : 1088, "type" : "VEC2", "max" : [0, 0.9166666269302368], "min" : [-1, 0], "name" : "TEXCOORD_0"}, {"bufferView" : 5, "byteOffset" : 20, "componentType" : 5126, "count" : 1088, "type" : "VEC3", "max" : [0.9990361332893372, 0.999643862247467, 0.9993526935577393], "min" : [-0.9990361332893372, -0.999643862247467, -0.999352753162384], "name" : "NORMAL"}, {"bufferView" : 0, "byteOffset" : 24144, "componentType" : 5123, "count" : 864, "type" : "SCALAR", "max" : [863], "min" : [0]}, {"bufferView" : 6, "byteOffset" : 0, "componentType" : 5126, "count" : 864, "type" : "VEC3", "max" : [0.4478844106197357, 1.6751099824905396, 3.4976909160614014], "min" : [-0.5812293887138367, 0.6484066843986511, 2.44547700881958], "name" : "POSITION"}, {"bufferView" : 6, "byteOffset" : 12, "componentType" : 5126, "count" : 864, "type" : "VEC2", "max" : [1, 1], "min" : [0, 0], "name" : "TEXCOORD_0"}, {"bufferView" : 6, "byteOffset" : 20, "componentType" : 5126, "count" : 864, "type" : "VEC3", "max" : [0.9850347638130188, 0.9979913234710693, 0.9859325289726257], "min" : [-0.9889283776283264, -0.9979913234710693, -0.9863657355308533], "name" : "NORMAL"}, {"bufferView" : 0, "byteOffset" : 25872, "componentType" : 5123, "count" : 195, "type" : "SCALAR", "max" : [194], "min" : [0]}, {"bufferView" : 7, "byteOffset" : 0, "componentType" : 5126, "count" : 195, "type" : "VEC3", "max" : [0.36678600311279297, 1.7827229499816895, 3.5145509243011475], "min" : [-0.5261440277099609, 1.3816590309143066, 2.4429969787597656], "name" : "POSITION"}, {"bufferView" : 7, "byteOffset" : 12, "componentType" : 5126, "count" : 195, "type" : "VEC2", "max" : [1, 1], "min" : [0, 0.6666666269302368], "name" : "TEXCOORD_0"}, {"bufferView" : 7, "byteOffset" : 20, "componentType" : 5126, "count" : 195, "type" : "VEC3", "max" : [0.6158793568611145, 0.999083399772644, 0.7579129338264465], "min" : [-0.8655945062637329, 0.5001986622810364, -0.758861780166626], "name" : "NORMAL"}, {"bufferView" : 0, "byteOffset" : 26264, "componentType" : 5123, "count" : 6, "type" : "SCALAR", "max" : [3], "min" : [0]}, {"bufferView" : 8, "byteOffset" : 0, "componentType" : 5126, "count" : 4, "type" : "VEC3", "max" : [-0.429474800825119, 0.921789824962616, 3.049549102783203], "min" : [-0.48561421036720276, 0.7460178136825562, 2.8595829010009766], "name" : "POSITION"}, {"bufferView" : 8, "byteOffset" : 12, "componentType" : 5126, "count" : 4, "type" : "VEC2", "max" : [1, 1], "min" : [0, 0], "name" : "TEXCOORD_0"}, {"bufferView" : 8, "byteOffset" : 20, "componentType" : 5126, "count" : 4, "type" : "VEC3", "max" : [-0.9532612562179565, -0.30208659172058105, 0.006749826483428478], "min" : [-0.9532612562179565, -0.30208659172058105, 0.006749826483428478], "name" : "NORMAL"}, {"bufferView" : 0, "byteOffset" : 26276, "componentType" : 5123, "count" : 18, "type" : "SCALAR", "max" : [11], "min" : [0]}, {"bufferView" : 9, "byteOffset" : 0, "componentType" : 5126, "count" : 12, "type" : "VEC3", "max" : [-0.565284788608551, 0.9568579792976379, 3.1594738960266113], "min" : [-0.5736135244369507, 0.9321163892745972, 2.820051908493042], "name" : "POSITION"}, {"bufferView" : 9, "byteOffset" : 12, "componentType" : 5126, "count" : 12, "type" : "VEC2", "max" : [1, 1], "min" : [0, 0], "name" : "TEXCOORD_0"}, {"bufferView" : 9, "byteOffset" : 20, "componentType" : 5126, "count" : 12, "type" : "VEC3", "max" : [-0.9453193545341492, -0.3261585235595703, -0.00085636688163504], "min" : [-0.9453193545341492, -0.3261585235595703, -0.0008568287012167275], "name" : "NORMAL"}, {"bufferView" : 0, "byteOffset" : 26312, "componentType" : 5123, "count" : 6, "type" : "SCALAR", "max" : [3], "min" : [0]}, {"bufferView" : 10, "byteOffset" : 0, "componentType" : 5126, "count" : 4, "type" : "VEC3", "max" : [-0.5899984836578369, 1.0929750204086304, 3.0632829666137695], "min" : [-0.6010125279426575, 1.0610660314559937, 2.9200260639190674], "name" : "POSITION"}, {"bufferView" : 10, "byteOffset" : 12, "componentType" : 5126, "count" : 4, "type" : "VEC2", "max" : [1, 1], "min" : [0, 0], "name" : "TEXCOORD_0"}, {"bufferView" : 10, "byteOffset" : 20, "componentType" : 5126, "count" : 4, "type" : "VEC3", "max" : [-0.9627068042755127, -0.2666303515434265, -0.04596414789557457], "min" : [-0.9627068042755127, -0.2666303515434265, -0.04596414789557457], "name" : "NORMAL"}, {"bufferView" : 0, "byteOffset" : 26324, "componentType" : 5123, "count" : 864, "type" : "SCALAR", "max" : [863], "min" : [0]}, {"bufferView" : 11, "byteOffset" : 0, "componentType" : 5126, "count" : 864, "type" : "VEC3", "max" : [-0.4912857115268707, 1.3010129928588867, 3.1730270385742188], "min" : [-0.5883777737617493, 1.224086046218872, 3.0949900150299072], "name" : "POSITION"}, {"bufferView" : 11, "byteOffset" : 12, "componentType" : 5126, "count" : 864, "type" : "VEC2", "max" : [1, 1], "min" : [0, 0], "name" : "TEXCOORD_0"}, {"bufferView" : 11, "byteOffset" : 20, "componentType" : 5126, "count" : 864, "type" : "VEC3", "max" : [0.984982430934906, 0.9993265271186829, 0.9824963808059692], "min" : [-0.9851551651954651, -0.9993265271186829, -0.98293137550354], "name" : "NORMAL"}, {"bufferView" : 0, "byteOffset" : 28052, "componentType" : 5123, "count" : 864, "type" : "SCALAR", "max" : [863], "min" : [0]}, {"bufferView" : 12, "byteOffset" : 0, "componentType" : 5126, "count" : 864, "type" : "VEC3", "max" : [-0.4933479130268097, 1.4114990234375, 3.2631449699401855], "min" : [-0.5356534123420715, 1.3151220083236694, 3.0751259326934814], "name" : "POSITION"}, {"bufferView" : 12, "byteOffset" : 12, "componentType" : 5126, "count" : 864, "type" : "VEC2", "max" : [1, 1], "min" : [0, 0], "name" : "TEXCOORD_0"}, {"bufferView" : 12, "byteOffset" : 20, "componentType" : 5126, "count" : 864, "type" : "VEC3", "max" : [0.9913467764854431, 0.99303138256073, 0.9917864799499512], "min" : [-0.9917992949485779, -0.991862416267395, -0.9902539253234863], "name" : "NORMAL"}, {"bufferView" : 0, "byteOffset" : 29780, "componentType" : 5123, "count" : 864, "type" : "SCALAR", "max" : [863], "min" : [0]}, {"bufferView" : 13, "byteOffset" : 0, "componentType" : 5126, "count" : 864, "type" : "VEC3", "max" : [-0.4736297130584717, 1.3119289875030518, 2.873405933380127], "min" : [-0.5689641833305359, 1.2367299795150757, 2.793154001235962], "name" : "POSITION"}, {"bufferView" : 13, "byteOffset" : 12, "componentType" : 5126, "count" : 864, "type" : "VEC2", "max" : [1, 1], "min" : [0, 0], "name" : "TEXCOORD_0"}, {"bufferView" : 13, "byteOffset" : 20, "componentType" : 5126, "count" : 864, "type" : "VEC3", "max" : [0.9762327075004578, 0.9994025230407715, 0.9893078804016113], "min" : [-0.9766978621482849, -0.9994025230407715, -0.9894512891769409], "name" : "NORMAL"}, {"bufferView" : 0, "byteOffset" : 31508, "componentType" : 5123, "count" : 864, "type" : "SCALAR", "max" : [863], "min" : [0]}, {"bufferView" : 14, "byteOffset" : 0, "componentType" : 5126, "count" : 864, "type" : "VEC3", "max" : [-0.4611845016479492, 1.4072940349578857, 2.8904318809509277], "min" : [-0.5551654100418091, 1.3355599641799927, 2.712141990661621], "name" : "POSITION"}, {"bufferView" : 14, "byteOffset" : 12, "componentType" : 5126, "count" : 864, "type" : "VEC2", "max" : [1, 1], "min" : [0, 0], "name" : "TEXCOORD_0"}, {"bufferView" : 14, "byteOffset" : 20, "componentType" : 5126, "count" : 864, "type" : "VEC3", "max" : [0.9874892830848694, 0.9898928999900818, 0.9878636002540588], "min" : [-0.9873998165130615, -0.9893330335617065, -0.989468514919281], "name" : "NORMAL"}], "asset" : {"generator" : "Aspose.3D 24.6.0", "version" : "2.0"}, "buffers" : [{"uri" : "data:application/octet-stream;base64,", "byteLength" : 439024}], "bufferViews" : [{"buffer" : 0, "byteOffset" : 0, "byteLength" : 33236, "target" : 34963}, {"buffer" : 0, "byteOffset" : 33240, "byteLength" : 75776, "byteStride" : 32, "target" : 34962}, {"buffer" : 0, "byteOffset" : 109020, "byteLength" : 35328, "byteStride" : 32, "target" : 34962}, {"buffer" : 0, "byteOffset" : 144352, "byteLength" : 57344, "byteStride" : 32, "target" : 34962}, {"buffer" : 0, "byteOffset" : 201700, "byteLength" : 57344, "byteStride" : 32, "target" : 34962}, {"buffer" : 0, "byteOffset" : 259048, "byteLength" : 34816, "byteStride" : 32, "target" : 34962}, {"buffer" : 0, "byteOffset" : 293868, "byteLength" : 27648, "byteStride" : 32, "target" : 34962}, {"buffer" : 0, "byteOffset" : 321520, "byteLength" : 6240, "byteStride" : 32, "target" : 34962}, {"buffer" : 0, "byteOffset" : 327764, "byteLength" : 128, "byteStride" : 32, "target" : 34962}, {"buffer" : 0, "byteOffset" : 327896, "byteLength" : 384, "byteStride" : 32, "target" : 34962}, {"buffer" : 0, "byteOffset" : 328284, "byteLength" : 128, "byteStride" : 32, "target" : 34962}, {"buffer" : 0, "byteOffset" : 328416, "byteLength" : 27648, "byteStride" : 32, "target" : 34962}, {"buffer" : 0, "byteOffset" : 356068, "byteLength" : 27648, "byteStride" : 32, "target" : 34962}, {"buffer" : 0, "byteOffset" : 383720, "byteLength" : 27648, "byteStride" : 32, "target" : 34962}, {"buffer" : 0, "byteOffset" : 411372, "byteLength" : 27648, "byteStride" : 32, "target" : 34962}], "meshes" : [{"primitives" : [{"attributes" : {"POSITION" : 1, "TEXCOORD_0" : 2, "NORMAL" : 3}, "indices" : 0, "mode" : 4}], "name" : ""}, {"primitives" : [{"attributes" : {"POSITION" : 5, "TEXCOORD_0" : 6, "NORMAL" : 7}, "indices" : 4, "mode" : 4}], "name" : ""}, {"primitives" : [{"attributes" : {"POSITION" : 9, "TEXCOORD_0" : 10, "NORMAL" : 11}, "indices" : 8, "mode" : 4}], "name" : ""}, {"primitives" : [{"attributes" : {"POSITION" : 13, "TEXCOORD_0" : 14, "NORMAL" : 15}, "indices" : 12, "mode" : 4}], "name" : ""}, {"primitives" : [{"attributes" : {"POSITION" : 17, "TEXCOORD_0" : 18, "NORMAL" : 19}, "indices" : 16, "mode" : 4}], "name" : ""}, {"primitives" : [{"attributes" : {"POSITION" : 21, "TEXCOORD_0" : 22, "NORMAL" : 23}, "indices" : 20, "mode" : 4}], "name" : ""}, {"primitives" : [{"attributes" : {"POSITION" : 25, "TEXCOORD_0" : 26, "NORMAL" : 27}, "indices" : 24, "mode" : 4}], "name" : ""}, {"primitives" : [{"attributes" : {"POSITION" : 29, "TEXCOORD_0" : 30, "NORMAL" : 31}, "indices" : 28, "mode" : 4}], "name" : ""}, {"primitives" : [{"attributes" : {"POSITION" : 33, "TEXCOORD_0" : 34, "NORMAL" : 35}, "indices" : 32, "mode" : 4}], "name" : ""}, {"primitives" : [{"attributes" : {"POSITION" : 37, "TEXCOORD_0" : 38, "NORMAL" : 39}, "indices" : 36, "mode" : 4}], "name" : ""}, {"primitives" : [{"attributes" : {"POSITION" : 41, "TEXCOORD_0" : 42, "NORMAL" : 43}, "indices" : 40, "mode" : 4}], "name" : ""}, {"primitives" : [{"attributes" : {"POSITION" : 45, "TEXCOORD_0" : 46, "NORMAL" : 47}, "indices" : 44, "mode" : 4}], "name" : ""}, {"primitives" : [{"attributes" : {"POSITION" : 49, "TEXCOORD_0" : 50, "NORMAL" : 51}, "indices" : 48, "mode" : 4}], "name" : ""}, {"primitives" : [{"attributes" : {"POSITION" : 53, "TEXCOORD_0" : 54, "NORMAL" : 55}, "indices" : 52, "mode" : 4}], "name" : ""}], "nodes" : [{"mesh" : 0, "name" : "Cube"}, {"mesh" : 1, "name" : "Sphere"}, {"mesh" : 2, "name" : "Cube 1"}, {"mesh" : 3, "name" : "Cube 2"}, {"mesh" : 4, "name" : "Sphere 1"}, {"mesh" : 5, "name" : "head"}, {"mesh" : 6, "name" : "hair"}, {"mesh" : 7, "name" : "Plane"}, {"mesh" : 8, "name" : "lip"}, {"mesh" : 9, "name" : "nose"}, {"mesh" : 10, "name" : "eye"}, {"mesh" : 11, "name" : "ibro"}, {"mesh" : 12, "name" : "R i"}, {"mesh" : 13, "name" : "ibr"}], "scene" : 0, "scenes" : [{"nodes" : [0, 1, 2, 3, 4, 5, 6, 7, 8, 9, 10, 11, 12, 13]}]}